<svg width="22" height="20" viewBox="0 0 22 20" fill="none" xmlns="http://www.w3.org/2000/svg">
<path d="M18.809 19.5866C19.3815 20.1062 20.2669 20.0634 20.7866 19.4909C21.3063 18.9184 21.2635 18.033 20.691 17.5134L18.809 19.5866ZM15.8942 8.97217C15.8942 12.3533 13.1532 15.0943 9.7721 15.0943V17.8942C14.6996 17.8942 18.6942 13.8997 18.6942 8.97217H15.8942ZM9.7721 15.0943C6.39094 15.0943 3.64998 12.3533 3.64998 8.97217H0.85002C0.85002 13.8997 4.84457 17.8942 9.7721 17.8942V15.0943ZM3.64998 8.97217C3.64998 5.59102 6.39094 2.85005 9.7721 2.85005V0.0500931C4.84457 0.0500931 0.85002 4.04464 0.85002 8.97217H3.64998ZM9.7721 2.85005C13.1532 2.85005 15.8942 5.59102 15.8942 8.97217H18.6942C18.6942 4.04464 14.6996 0.0500931 9.7721 0.0500931V2.85005ZM14.4727 15.6503L18.809 19.5866L20.691 17.5134L16.3546 13.5771L14.4727 15.6503Z" fill=""/>
</svg>
