<svg width="22" height="20" viewBox="0 0 22 20" fill="none" xmlns="http://www.w3.org/2000/svg">
<path d="M9.08303 19.7505C7.57366 19.7505 6.20516 19.3581 4.97754 18.5732C3.74991 17.8085 2.77386 16.772 2.04936 15.4639C1.34498 14.1357 0.992798 12.6565 0.992798 11.0264C0.992798 9.49687 1.27454 8.11831 1.83804 6.89069C2.40154 5.64294 3.16629 4.57632 4.13229 3.69082C5.11842 2.80532 6.23535 2.13114 7.4831 1.66826C8.73085 1.18526 10.039 0.943762 11.4075 0.943762C12.1063 0.943762 13.0289 1.03433 13.7836 1.36639C13.9845 2.27154 13.9845 4.5356 13.5727 6.19591L13.3363 6.11166C12.9322 5.96762 12.5096 5.8812 12.0811 5.85813C11.8439 5.84536 11.6183 5.83413 11.5584 5.83413C10.4717 5.83413 9.49559 6.0555 8.63022 6.49825C7.78497 6.92088 7.12085 7.51456 6.63785 8.27931C6.15485 9.04406 5.91335 9.92956 5.91335 10.9358V11.2981C5.91335 11.4188 5.92341 11.5295 5.94354 11.6301C6.04416 12.5961 6.4366 13.3709 7.12085 13.9546C7.82522 14.5181 8.7977 14.9044 9.85918 14.7998C15.3748 14.2564 15.7457 6.19638 15.4439 0.249451L20.1618 1.03433C20.5757 13.7525 17.2519 17.8827 12.5761 19.3279C11.4692 19.67 10.2704 19.7505 9.08303 19.7505Z" fill=""/>
<path d="M21.0071 13.9546L20.2524 19.2072L17.607 18.2709C19.1164 16.912 19.7805 15.4031 20.3239 13.7428L21.0071 13.9546Z" fill=""/>
</svg>
