<svg width="32" height="32" viewBox="0 0 32 32" fill="none" xmlns="http://www.w3.org/2000/svg">
<path d="M19.9497 16.5271C19.9497 15.7727 19.3328 15.2997 18.6158 15.2997H16.3703V11.6585C16.3703 11.3082 16.2806 10.977 16.0895 10.7297C15.8948 10.4779 15.6032 10.3246 15.2306 10.3246C14.8572 10.3246 14.5727 10.4788 14.3864 10.7328C14.2046 10.9808 14.1249 11.3114 14.1249 11.6585V16.394C14.1249 17.1303 14.7216 17.7279 15.4588 17.7279H18.6158C18.9719 17.7279 19.304 17.6196 19.5496 17.4121C19.7976 17.2026 19.9497 16.898 19.9497 16.5271Z" fill="white" stroke="#A2A3A3" stroke-width="0.3"/>
<path d="M15.9997 6.52905C10.769 6.52905 6.52881 10.7693 6.52881 15.9999C6.52881 21.2305 10.769 25.4707 15.9997 25.4707C21.2303 25.4707 25.4705 21.2305 25.4705 15.9999C25.4648 10.7716 21.2279 6.53471 15.9997 6.52905Z" stroke="white" stroke-width="2.68333"/>
</svg>
